<?xml version="1.0" encoding="utf-8"?>
<!-- Generator: Adobe Illustrator 15.0.0, SVG Export Plug-In . SVG Version: 6.00 Build 0)  -->
<!DOCTYPE svg PUBLIC "-//W3C//DTD SVG 1.1//EN" "http://www.w3.org/Graphics/SVG/1.1/DTD/svg11.dtd">
<svg version="1.1" id="Layer_1" xmlns="http://www.w3.org/2000/svg" xmlns:xlink="http://www.w3.org/1999/xlink" x="0px" y="0px"
	 width="26px" height="26px" viewBox="0 0 26 26" enable-background="new 0 0 26 26" xml:space="preserve">
<g>
	<path d="M10.792,14.074h0.833c0.561,0,1.016-0.455,1.016-1.016s-0.456-1.016-1.016-1.016h-0.833c-0.562,0-1.017,0.455-1.017,1.016
		S10.23,14.074,10.792,14.074z"/>
	<path d="M14.048,14.074h0.834c0.561,0,1.016-0.455,1.016-1.016s-0.455-1.016-1.016-1.016h-0.834c-0.562,0-1.017,0.455-1.017,1.016
		S13.486,14.074,14.048,14.074z"/>
	<path d="M11.235,16.091l0.699-0.155c0.469,0,0.85-0.382,0.85-0.853c0-0.469-0.381-0.693-0.85-0.693h-0.699
		c-0.47,0-0.851,0.38-0.851,0.851C10.384,15.71,10.765,16.091,11.235,16.091z"/>
	<path d="M13.963,15.936l0.697,0.155c0.47,0,0.852-0.381,0.852-0.851c0-0.471-0.382-0.851-0.852-0.851h-0.697
		c-0.471,0-0.852,0.225-0.852,0.693C13.111,15.554,13.492,15.936,13.963,15.936z"/>
	<path d="M12.005,16.397h-0.698c-0.47,0-0.851,0.224-0.851,0.694c0,0.47-0.15,0.691,0.37,1.416c0.52,0.726,1.478,0.901,1.478,0.901
		c0.47,0,0.553-1.691,0.553-2.161C12.857,16.777,12.476,16.397,12.005,16.397z"/>
	<path d="M14.729,16.397H14.03c-0.47,0-0.851,0.38-0.851,0.851c0,0.47,0.083,2.161,0.553,2.161c0,0,0.959-0.176,1.479-0.901
		c0.52-0.725,0.368-0.946,0.368-1.416C15.579,16.621,15.198,16.397,14.729,16.397z"/>
	<path d="M21.38,8.824c-1.618-2.856-3.904-3.231-4.039-3.249h-1.54l0.163-0.728c0.01-0.042,0.013-0.084,0.011-0.124
		c-0.012-0.274-0.275-0.458-0.514-0.458c-0.21,0-1.344,0.004-2.461,0.008c-1.117-0.004-2.252-0.008-2.461-0.008
		c-0.238,0-0.501,0.185-0.513,0.458c-0.002,0.039,0.001,0.082,0.01,0.124l0.163,0.728H8.659C8.523,5.592,6.237,5.967,4.62,8.824
		c-0.879,1.681-0.468,1.502-0.468,5.545c0,0.265,0.215,0.479,0.479,0.479H7.75c0.09,0,0.173-0.032,0.247-0.076l-0.128,3.513
		c-0.003,0.077,0.013,0.158,0.048,0.229l0.821,1.647c0.053,0.104,0.138,0.184,0.242,0.228c1.271,0.544,2.535,0.831,3.766,0.877
		v0.014c0.058,0.001,0.115,0.004,0.174,0.004c0.026,0,0.054-0.004,0.081-0.004s0.054,0.004,0.08,0.004
		c0.06,0,0.116-0.003,0.174-0.004v-0.014c1.231-0.046,2.497-0.333,3.767-0.877c0.103-0.044,0.188-0.123,0.241-0.228l0.821-1.647
		c0.033-0.071,0.051-0.152,0.047-0.229l-0.128-3.513c0.074,0.044,0.156,0.076,0.247,0.076h3.118c0.265,0,0.479-0.215,0.479-0.479
		C21.848,10.326,22.26,10.505,21.38,8.824z M20.884,13.889h-1.975c-0.518-3.592,1.033-2.84,0.343-4.119L19.25,9.771
		c-0.096-0.233-0.385-0.647-0.713-0.647c-0.094,0-0.269,0.032-0.399,0.252l-1.1,4.915c-0.008,0.04-0.011,0.076-0.009,0.115
		l0.14,3.794l-0.687,1.377c-1.184,0.484-2.354,0.732-3.482,0.744c-1.129-0.012-2.3-0.26-3.483-0.744l-0.686-1.377l0.139-3.794
		c0.001-0.039-0.001-0.075-0.009-0.115l-1.1-4.915c-0.13-0.22-0.306-0.252-0.399-0.252c-0.329,0-0.618,0.414-0.713,0.647L6.748,9.77
		c-0.691,1.279,0.86,0.527,0.342,4.119H5.115c0.037-3.163-0.576-2.686,0.143-4.201l0.115-0.242L5.37,9.444
		c1.272-2.63,3.639-2.9,3.74-2.911l1.952,0.788c0.151,0,0.296-0.074,0.387-0.196c0.09-0.122,0.118-0.281,0.072-0.426
		c-0.01-0.04-0.347-1.157-0.418-1.472c0.43,0.001,1.029,0.003,1.642,0.005v0.001c0.084,0,0.17,0,0.255,0s0.17,0,0.254,0V5.232
		c0.614-0.002,1.212-0.004,1.642-0.005c-0.07,0.314-0.407,1.432-0.418,1.472c-0.045,0.145-0.018,0.305,0.072,0.426
		c0.09,0.122,0.235,0.196,0.387,0.196l1.952-0.788c0.102,0.011,2.468,0.281,3.74,2.911l-0.003,0.001l0.116,0.242
		C21.461,11.203,20.848,10.726,20.884,13.889z"/>
</g>
</svg>
