<?xml version="1.0" encoding="utf-8"?>
<!-- Generator: Adobe Illustrator 16.0.0, SVG Export Plug-In . SVG Version: 6.00 Build 0)  -->
<!DOCTYPE svg PUBLIC "-//W3C//DTD SVG 1.1//EN" "http://www.w3.org/Graphics/SVG/1.1/DTD/svg11.dtd">
<svg version="1.1" id="Layer_1" xmlns="http://www.w3.org/2000/svg" xmlns:xlink="http://www.w3.org/1999/xlink" x="0px" y="0px"
	 width="50px" height="50px" viewBox="0 0 50 50" enable-background="new 0 0 50 50" xml:space="preserve">
<g id="Ribbon_6">
	<g id="Regal_Vector_Pack_02">
	</g>
</g>
<g>
	<path d="M25.867,26.166c0.958-0.456,1.271-1.8,0.702-2.995c-0.572-1.198-1.813-1.801-2.771-1.344c-0.959,0.457-1.272,1.801-0.701,3
		C23.667,26.021,24.908,26.625,25.867,26.166z"/>
	<path d="M28.74,19.017c0.921,5.77-3.185,10.097-3.185,10.097s-3.386-5.729-9.08-7.459c11.076,8.1,4.772,18.196,4.772,18.196h3.206
		C24.454,39.851,31.906,26.99,28.74,19.017z"/>
	<path d="M22.489,19.676c-0.062-0.092-0.125-0.19-0.188-0.298c-0.293-0.506-0.427-0.975-0.427-0.975s0.338,0.353,0.631,0.857
		c0.061,0.107,0.114,0.212,0.163,0.312c0.046-0.241,0.1-0.736-0.134-1.143c-0.323-0.559-1.067-0.733-1.067-0.733
		s-0.222,0.732,0.101,1.292C21.802,19.394,22.258,19.595,22.489,19.676z"/>
	<path d="M29.842,23.921c0.186,0.16,0.587,0.454,1.056,0.454c0.646,0,1.169-0.558,1.169-0.558s-0.523-0.558-1.169-0.558
		c-0.469,0-0.871,0.294-1.056,0.454c0.11-0.008,0.227-0.014,0.351-0.014c0.585,0,1.06,0.117,1.06,0.117s-0.475,0.118-1.06,0.117
		C30.069,23.936,29.952,23.929,29.842,23.921z"/>
	<path d="M27.495,19.261c0.292-0.506,0.631-0.859,0.631-0.859s-0.134,0.471-0.428,0.977c-0.061,0.107-0.125,0.206-0.188,0.298
		c0.233-0.081,0.688-0.283,0.922-0.688c0.323-0.56,0.102-1.293,0.102-1.293s-0.746,0.176-1.068,0.734
		c-0.234,0.406-0.181,0.9-0.134,1.143C27.379,19.473,27.433,19.368,27.495,19.261z"/>
	<path d="M24.739,16.215c0-1.301,0.261-2.354,0.261-2.354s0.262,1.054,0.262,2.354c0,0.275-0.013,0.535-0.033,0.781
		c0.358-0.413,1.011-1.307,1.011-2.351c0-1.436-1.24-2.599-1.24-2.599s-1.24,1.163-1.24,2.599c0,1.044,0.653,1.938,1.01,2.351
		C24.752,16.75,24.739,16.49,24.739,16.215z"/>
	<path d="M16.437,20.305c0.905,0.522,2.005,0.403,2.542,0.3c-0.222-0.105-0.455-0.226-0.692-0.363
		c-1.126-0.649-1.908-1.402-1.908-1.402s1.043,0.3,2.169,0.95c0.238,0.138,0.457,0.279,0.661,0.419
		c-0.178-0.517-0.625-1.53-1.531-2.052c-1.242-0.718-2.87-0.226-2.87-0.226S15.194,19.588,16.437,20.305z"/>
	<path d="M33.563,27.329c-0.905-0.522-2.004-0.405-2.541-0.301c0.222,0.106,0.454,0.226,0.692,0.363
		c1.126,0.65,1.908,1.403,1.908,1.403s-1.042-0.3-2.169-0.95c-0.239-0.138-0.458-0.28-0.661-0.419
		c0.178,0.517,0.625,1.529,1.53,2.05c1.243,0.718,2.871,0.227,2.871,0.227S34.805,28.046,33.563,27.329z"/>
	<path d="M19.207,27.426c-0.204,0.139-0.422,0.279-0.66,0.418c-1.126,0.649-2.17,0.951-2.17,0.951s0.782-0.754,1.908-1.404
		c0.239-0.138,0.471-0.256,0.693-0.363c-0.536-0.104-1.638-0.223-2.542,0.301c-1.243,0.717-1.631,2.373-1.631,2.373
		s1.628,0.492,2.871-0.225C18.582,28.954,19.029,27.941,19.207,27.426z"/>
	<path d="M30.792,20.206c0.204-0.138,0.423-0.279,0.662-0.417c1.125-0.65,2.169-0.95,2.169-0.95s-0.782,0.753-1.908,1.402
		c-0.238,0.138-0.471,0.258-0.692,0.363c0.536,0.104,1.636,0.223,2.54-0.3c1.243-0.718,1.631-2.374,1.631-2.374
		s-1.627-0.491-2.871,0.226C31.417,18.678,30.971,19.69,30.792,20.206z"/>
	<path d="M20.161,16.052c-0.186-0.273-0.375-0.567-0.56-0.887c-0.872-1.509-1.275-2.908-1.275-2.908s1.01,1.048,1.881,2.56
		c0.185,0.318,0.344,0.629,0.486,0.927c0.14-0.718,0.299-2.194-0.401-3.406c-0.962-1.666-3.182-2.186-3.182-2.186
		S16.451,12.334,17.413,14C18.113,15.213,19.471,15.812,20.161,16.052z"/>
	<path d="M29.839,31.583c0.187,0.272,0.377,0.565,0.562,0.885c0.872,1.512,1.274,2.91,1.274,2.91s-1.01-1.05-1.882-2.56
		c-0.184-0.319-0.344-0.63-0.486-0.928c-0.138,0.719-0.297,2.193,0.402,3.406c0.962,1.666,3.182,2.186,3.182,2.186
		s0.661-2.182-0.301-3.849C31.889,32.421,30.531,31.821,29.839,31.583z"/>
	<path d="M14.808,24.168c-1.743,0-3.156-0.351-3.156-0.351s1.413-0.352,3.156-0.352c0.37,0,0.719,0.02,1.048,0.044
		c-0.553-0.48-1.751-1.356-3.153-1.356c-1.923,0-3.483,1.663-3.483,1.663s1.561,1.664,3.483,1.663c1.401,0,2.599-0.875,3.152-1.354
		C15.526,24.15,15.176,24.168,14.808,24.168z"/>
	<path d="M37.297,22.155c-1.401,0-2.599,0.873-3.152,1.354c0.329-0.025,0.678-0.044,1.047-0.043c1.744,0,3.156,0.351,3.156,0.351
		s-1.412,0.351-3.155,0.351c-0.37,0-0.719-0.018-1.048-0.043c0.552,0.48,1.751,1.355,3.151,1.354c1.924,0,3.484-1.661,3.484-1.661
		S39.219,22.154,37.297,22.155z"/>
	<path d="M20.208,32.818c-0.872,1.51-1.882,2.56-1.882,2.56s0.402-1.401,1.274-2.91c0.186-0.319,0.375-0.612,0.562-0.887
		c-0.692,0.24-2.05,0.84-2.75,2.053c-0.963,1.666-0.303,3.849-0.303,3.849s2.221-0.52,3.183-2.185
		c0.701-1.214,0.542-2.69,0.403-3.407C20.55,32.188,20.391,32.497,20.208,32.818z"/>
	<path d="M29.792,14.814c0.871-1.51,1.882-2.558,1.882-2.558s-0.403,1.399-1.275,2.908c-0.184,0.318-0.374,0.614-0.56,0.886
		c0.692-0.239,2.049-0.839,2.748-2.051c0.963-1.666,0.303-3.85,0.303-3.85s-2.218,0.521-3.182,2.186
		c-0.702,1.213-0.542,2.688-0.403,3.406C29.449,15.446,29.607,15.135,29.792,14.814z"/>
</g>
</svg>
